:SAMPLES-PER-SECOND 30
:FULLY-SPECIFIED
:DEGREES
149
root  -52.8863 41.5787 -1.74573 -151.006 -87.9913 150
RightUpLeg  2.91523 -7.33694 -3.99262
RightLeg  3.36582 -0.0162745 3.23978
RightFoot  -2.99245 0.176869 -2.75592
RightToes  1.74622e-010 0 -3.6325e-017
Spine  -1.75281 -1.53437 0.755659
Spine1  6.29186 -1.57289 0.0805926
HEad  -3.31002 4.76341 -1.64792
LeftShoulder1  0.534196 0.217503 -8.64975
LeftArm  -16.2948 8.64169 1.99264
LeftForeArm  14.7432 -8.34211 -2.87691
LeftHand  -0.244104 0.0205437 5.32207
RightShoulder  0.324432 -1.03543 5.35263
RightArm  -20.1642 2.80288 -1.56244
RightForeArm  -3.76864 3.40401 4.2873
RightHand  -0.843189 1.80741 -13.7357
LeftUpLeg  2.64606 4.14611 1.95675
LeftLeg  0.148099 8.29132 -3.75369
LeftFoot  -1.5213 -0.0714815 0.912958
LeftToes  -1.18267e-011 5.39559e-011 -6.19194e-012
150
root  -52.9402 41.5824 -1.73061 -152.574 -87.9644 151.759
RightUpLeg  2.85723 -7.28083 -3.95001
RightLeg  3.21289 -0.0174167 3.23288
RightFoot  -2.94825 0.174851 -2.72487
RightToes  1.74622e-010 0 -3.6325e-017
Spine  -1.56527 -1.55318 0.778419
Spine1  6.00039 -1.58712 0.0316458
HEad  -3.58158 4.70704 -1.99813
LeftShoulder1  0.593725 -0.0779964 -9.02143
LeftArm  -15.1032 8.66851 2.04979
LeftForeArm  14.4784 -7.04335 -3.12583
LeftHand  -0.244104 0.0205437 5.32207
RightShoulder  0.381718 -0.718353 5.98932
RightArm  -19.6424 2.75585 -1.64451
RightForeArm  -3.02919 3.24916 4.34606
RightHand  -0.772109 1.31898 -13.4756
LeftUpLeg  2.56617 4.09835 1.92856
LeftLeg  0.0631733 8.39656 -3.71123
LeftFoot  -1.53432 -0.0735706 0.954432
LeftToes  -1.18267e-011 5.39559e-011 -6.19194e-012
151
root  -52.9923 41.5863 -1.7134 -153.261 -87.9311 152.585
RightUpLeg  2.83472 -7.25929 -3.95389
RightLeg  3.10171 0.010282 3.22684
RightFoot  -2.92237 0.175054 -2.72742
RightToes  1.74622e-010 0 -3.6325e-017
Spine  -1.64188 -1.55027 0.793221
Spine1  6.15042 -1.58297 0.0038297
HEad  -4.08172 4.78021 -2.34838
LeftShoulder1  0.657759 -0.391738 -9.38169
LeftArm  -14.4507 8.69648 2.27374
LeftForeArm  14.1672 -5.89279 -3.20996
LeftHand  -0.244104 0.0205437 5.32207
RightShoulder  0.416507 -0.509536 6.22067
RightArm  -19.4968 2.51143 -1.5993
RightForeArm  -2.8929 3.32549 4.34948
RightHand  -0.703289 0.78874 -13.3019
LeftUpLeg  2.55817 4.01177 1.85597
LeftLeg  -0.0708185 8.53885 -3.65866
LeftFoot  -1.52495 -0.0737717 0.96562
LeftToes  -1.18267e-011 5.39559e-011 -6.19194e-012
152
root  -53.0462 41.5858 -1.6946 -154.406 -87.8413 153.775
RightUpLeg  2.86981 -7.27542 -3.9913
RightLeg  3.08231 0.137087 3.21973
RightFoot  -2.9494 0.175521 -2.73379
RightToes  1.74622e-010 0 -3.6325e-017
Spine  -1.93304 -1.49647 0.817363
Spine1  6.74483 -1.5204 -0.0292158
HEad  -4.64817 4.85129 -2.49903
LeftShoulder1  0.690618 -0.549989 -9.55703
LeftArm  -14.6874 8.71001 2.45119
LeftForeArm  14.9758 -5.36945 -3.00502
LeftHand  -0.244104 0.0205437 5.32207
RightShoulder  0.418036 -0.510795 6.28351
RightArm  -19.7128 2.37155 -1.54629
RightForeArm  -2.89673 3.34593 4.27406
RightHand  -0.682019 0.645301 -13.1993
LeftUpLeg  2.62318 3.98463 1.81593
LeftLeg  -0.111648 8.66265 -3.6597
LeftFoot  -1.57545 -0.0746834 0.986648
LeftToes  -1.18267e-011 5.39559e-011 -6.19194e-012
153
root  -53.0975 41.5805 -1.676 -156.566 -87.7123 155.951
RightUpLeg  2.88309 -7.28805 -4.00693
RightLeg  3.15377 0.310904 3.20817
RightFoot  -3.01859 0.174228 -2.71316
RightToes  1.74622e-010 0 -3.6325e-017
Spine  -1.9537 -1.42917 0.899
Spine1  6.95441 -1.42802 -0.113597
HEad  -4.97463 4.84903 -2.48642
LeftShoulder1  0.67313 -0.469888 -9.44397
LeftArm  -14.6581 8.78301 2.37887
LeftForeArm  14.4667 -5.19482 -3.00433
LeftHand  -0.244104 0.0205437 5.32207
RightShoulder  0.40168 -0.648581 6.39569
RightArm  -19.897 2.40793 -1.68322
RightForeArm  -2.92211 3.25858 4.22001
RightHand  -0.704443 0.832447 -13.2337
LeftUpLeg  2.64441 4.06034 1.85281
LeftLeg  0.0268194 8.72757 -3.71733
LeftFoot  -1.71302 -0.0794882 1.06672
LeftToes  -1.18267e-011 5.39559e-011 -6.19194e-012
154
root  -53.1403 41.5743 -1.66056 -158.716 -87.6044 158.163
RightUpLeg  2.81696 -7.27146 -3.9835
RightLeg  3.25259 0.430431 3.19552
RightFoot  -3.09139 0.172663 -2.68941
RightToes  1.74622e-010 0 -3.6325e-017
Spine  -1.54239 -1.39538 0.992057
Spine1  6.3861 -1.37121 -0.196601
HEad  -4.94307 4.88812 -2.469
LeftShoulder1  0.637607 -0.305263 -9.21603
LeftArm  -14.6576 8.95965 2.38051
LeftForeArm  14.2907 -5.32443 -3.00286
LeftHand  -0.244104 0.0205437 5.32207
RightShoulder  0.387391 -0.749403 6.39037
RightArm  -19.9311 2.39199 -1.83481
RightForeArm  -2.92389 3.10446 4.19133
RightHand  -0.710328 0.918671 -13.1667
LeftUpLeg  2.56509 4.15988 1.91357
LeftLeg  0.23114 8.76366 -3.7683
LeftFoot  -1.85552 -0.0863734 1.17667
LeftToes  -1.18267e-011 5.39559e-011 -6.19194e-012
